<svg width="38" height="40" viewBox="0 0 38 40" fill="none" xmlns="http://www.w3.org/2000/svg">
<path d="M19.0138 1.25C18.6738 1.25 18.3452 1.31153 18.0339 1.436C17.2035 1.76813 14.2874 3.09109 11.6305 6.25513C10.1209 8.05636 8.94484 10.145 8.1267 12.4818C7.1468 15.2913 6.69156 18.4666 6.77817 21.9117C6.78962 22.2998 6.65148 22.6942 6.39737 23.0039C4.71457 25.0702 1.84428 29.332 1.50428 34.6749C1.45775 35.3951 1.79274 36.0712 2.4033 36.4824C2.76621 36.7243 3.18709 36.8481 3.61369 36.8481C3.90716 36.8481 4.19562 36.7914 4.46691 36.6677C5.38883 36.2621 7.84397 35.2881 10.5239 35.035C10.5818 35.0294 10.6334 35.0294 10.6906 35.0294C11.1459 35.0294 11.5782 35.2042 11.8781 35.5021C12.7428 36.3747 14.3619 37.5963 17.1456 38.4745C17.7447 38.6549 18.3674 38.75 19.0073 38.75C19.6472 38.75 20.2692 38.6598 20.8569 38.4745C23.6406 37.5963 25.2597 36.3747 26.1244 35.5021C26.4236 35.2035 26.8616 35.0294 27.3111 35.0294C27.3691 35.0294 27.4206 35.0294 27.4779 35.035C30.1578 35.2888 32.6072 36.2565 33.5349 36.6677C33.8111 36.7858 34.0996 36.8481 34.3931 36.8481C34.8197 36.8481 35.2406 36.7243 35.5977 36.4824C36.2026 36.0712 36.5368 35.3902 36.4968 34.6749C36.151 29.3376 33.2865 25.0757 31.6037 23.0039C31.3503 22.6886 31.2179 22.3054 31.2229 21.9117C31.3095 18.4659 30.8542 15.2906 29.8743 12.4818C29.0619 10.145 27.8802 8.05076 26.3706 6.25513C23.7372 3.09109 20.8204 1.76813 19.9908 1.436C19.6823 1.31153 19.3545 1.25 19.0138 1.25Z" stroke="#30B3F5" stroke-width="2" stroke-miterlimit="10"/>
</svg>
